<?xml version="1.0" standalone="no"?>
<!DOCTYPE svg PUBLIC "-//W3C//DTD SVG 20010904//EN"
 "http://www.w3.org/TR/2001/REC-SVG-20010904/DTD/svg10.dtd">
<svg version="1.0" xmlns="http://www.w3.org/2000/svg"
 width="25.000000pt" height="24.000000pt" viewBox="0 0 25.000000 24.000000"
 preserveAspectRatio="xMidYMid meet">

<g transform="translate(0.000000,24.000000) scale(0.100000,-0.100000)"
fill="#000000" stroke="none">
<path d="M54 146 c-3 -7 -4 -35 -2 -62 3 -41 6 -49 23 -49 15 0 21 8 23 34 2
19 1 44 -2 56 -7 27 -34 41 -42 21z"/>
<path d="M150 112 c0 -32 5 -54 15 -62 24 -20 37 1 33 56 -3 42 -6 49 -25 52
-21 3 -23 0 -23 -46z"/>
</g>
</svg>
